<?xml version="1.0" encoding="UTF-8" standalone="no"?>
<!DOCTYPE svg PUBLIC "-//W3C//DTD SVG 1.1//EN"
 "http://www.w3.org/Graphics/SVG/1.1/DTD/svg11.dtd">
<!-- Generated by graphviz version 2.43.0 (0)
 -->
<!-- Title: %3 Pages: 1 -->
<svg width="602pt" height="206pt"
 viewBox="0.00 0.00 602.00 206.00" xmlns="http://www.w3.org/2000/svg" xmlns:xlink="http://www.w3.org/1999/xlink">
<g id="graph0" class="graph" transform="scale(1 1) rotate(0) translate(4 202)">
<title>%3</title>
<polygon fill="white" stroke="transparent" points="-4,4 -4,-202 598,-202 598,4 -4,4"/>
<!-- DigitalWastePassport -->
<g id="node1" class="node">
<title>DigitalWastePassport</title>
<polygon fill="none" stroke="black" points="170,-36 0,-36 0,0 170,0 170,-36"/>
<text text-anchor="middle" x="85" y="-14.3" font-family="Times,serif" font-size="14.00">DigitalWastePassport</text>
</g>
<!-- WastePassport -->
<g id="node3" class="node">
<title>WastePassport</title>
<polygon fill="none" stroke="black" points="455,-36 333,-36 333,0 455,0 455,-36"/>
<text text-anchor="middle" x="394" y="-14.3" font-family="Times,serif" font-size="14.00">WastePassport</text>
</g>
<!-- DigitalWastePassport&#45;&gt;WastePassport -->
<g id="edge1" class="edge">
<title>DigitalWastePassport&#45;&gt;WastePassport</title>
<path fill="none" stroke="black" d="M170.3,-18C218.15,-18 277.36,-18 322.7,-18"/>
<polygon fill="black" stroke="black" points="322.73,-21.5 332.73,-18 322.73,-14.5 322.73,-21.5"/>
<text text-anchor="middle" x="251.5" y="-21.8" font-family="Times,serif" font-size="14.00">credentialSubject</text>
</g>
<!-- Waste -->
<g id="node2" class="node">
<title>Waste</title>
<polygon fill="none" stroke="black" points="594,-36 534,-36 534,0 594,0 594,-36"/>
<text text-anchor="middle" x="564" y="-14.3" font-family="Times,serif" font-size="14.00">Waste</text>
</g>
<!-- WastePassport&#45;&gt;Waste -->
<g id="edge2" class="edge">
<title>WastePassport&#45;&gt;Waste</title>
<path fill="none" stroke="black" d="M455.18,-18C477.95,-18 503.26,-18 523.64,-18"/>
<polygon fill="black" stroke="black" points="523.81,-21.5 533.81,-18 523.81,-14.5 523.81,-21.5"/>
<text text-anchor="middle" x="494.5" y="-21.8" font-family="Times,serif" font-size="14.00">waste</text>
</g>
<!-- Product -->
<g id="node4" class="node">
<title>Product</title>
<polygon fill="none" stroke="black" points="121.5,-90 48.5,-90 48.5,-54 121.5,-54 121.5,-90"/>
<text text-anchor="middle" x="85" y="-68.3" font-family="Times,serif" font-size="14.00">Product</text>
</g>
<!-- VerifiableCredential -->
<g id="node5" class="node">
<title>VerifiableCredential</title>
<polygon fill="none" stroke="black" points="164.5,-144 5.5,-144 5.5,-108 164.5,-108 164.5,-144"/>
<text text-anchor="middle" x="85" y="-122.3" font-family="Times,serif" font-size="14.00">VerifiableCredential</text>
</g>
<!-- ProductPassport -->
<g id="node6" class="node">
<title>ProductPassport</title>
<polygon fill="none" stroke="black" points="152.5,-198 17.5,-198 17.5,-162 152.5,-162 152.5,-198"/>
<text text-anchor="middle" x="85" y="-176.3" font-family="Times,serif" font-size="14.00">ProductPassport</text>
</g>
</g>
</svg>
