<?xml version="1.0" encoding="UTF-8" standalone="no"?>
<!DOCTYPE svg PUBLIC "-//W3C//DTD SVG 1.1//EN"
 "http://www.w3.org/Graphics/SVG/1.1/DTD/svg11.dtd">
<!-- Generated by graphviz version 2.43.0 (0)
 -->
<!-- Title: %3 Pages: 1 -->
<svg width="1363pt" height="314pt"
 viewBox="0.00 0.00 1363.00 314.00" xmlns="http://www.w3.org/2000/svg" xmlns:xlink="http://www.w3.org/1999/xlink">
<g id="graph0" class="graph" transform="scale(1 1) rotate(0) translate(4 310)">
<title>%3</title>
<polygon fill="white" stroke="transparent" points="-4,4 -4,-310 1359,-310 1359,4 -4,4"/>
<!-- Link -->
<g id="node1" class="node">
<title>Link</title>
<polygon fill="none" stroke="black" points="1342.5,-268 1288.5,-268 1288.5,-232 1342.5,-232 1342.5,-268"/>
<text text-anchor="middle" x="1315.5" y="-246.3" font-family="Times,serif" font-size="14.00">Link</text>
</g>
<!-- Measure -->
<g id="node2" class="node">
<title>Measure</title>
<polygon fill="none" stroke="black" points="1355,-119 1276,-119 1276,-83 1355,-83 1355,-119"/>
<text text-anchor="middle" x="1315.5" y="-97.3" font-family="Times,serif" font-size="14.00">Measure</text>
</g>
<!-- Party -->
<g id="node3" class="node">
<title>Party</title>
<polygon fill="none" stroke="black" points="1343,-214 1288,-214 1288,-178 1343,-178 1343,-214"/>
<text text-anchor="middle" x="1315.5" y="-192.3" font-family="Times,serif" font-size="14.00">Party</text>
</g>
<!-- AuthorizedParty -->
<g id="node4" class="node">
<title>AuthorizedParty</title>
<polygon fill="none" stroke="black" points="1027.5,-266 894.5,-266 894.5,-230 1027.5,-230 1027.5,-266"/>
<text text-anchor="middle" x="961" y="-244.3" font-family="Times,serif" font-size="14.00">AuthorizedParty</text>
</g>
<!-- AuthorizedParty&#45;&gt;Link -->
<g id="edge1" class="edge">
<title>AuthorizedParty&#45;&gt;Link</title>
<path fill="none" stroke="black" d="M1027.89,-248.37C1101.8,-248.79 1219.04,-249.46 1278.04,-249.79"/>
<polygon fill="black" stroke="black" points="1278.34,-253.29 1288.36,-249.85 1278.38,-246.29 1278.34,-253.29"/>
<text text-anchor="middle" x="1158" y="-252.8" font-family="Times,serif" font-size="14.00">contactPoint</text>
</g>
<!-- DigitalMarpolWastePassport -->
<g id="node5" class="node">
<title>DigitalMarpolWastePassport</title>
<polygon fill="none" stroke="black" points="221,-144 0,-144 0,-108 221,-108 221,-144"/>
<text text-anchor="middle" x="110.5" y="-122.3" font-family="Times,serif" font-size="14.00">DigitalMarpolWastePassport</text>
</g>
<!-- MarpolWastePassport -->
<g id="node9" class="node">
<title>MarpolWastePassport</title>
<polygon fill="none" stroke="black" points="557,-144 384,-144 384,-108 557,-108 557,-144"/>
<text text-anchor="middle" x="470.5" y="-122.3" font-family="Times,serif" font-size="14.00">MarpolWastePassport</text>
</g>
<!-- DigitalMarpolWastePassport&#45;&gt;MarpolWastePassport -->
<g id="edge2" class="edge">
<title>DigitalMarpolWastePassport&#45;&gt;MarpolWastePassport</title>
<path fill="none" stroke="black" d="M221.34,-126C269.98,-126 326.67,-126 373.58,-126"/>
<polygon fill="black" stroke="black" points="373.74,-129.5 383.74,-126 373.74,-122.5 373.74,-129.5"/>
<text text-anchor="middle" x="302.5" y="-129.8" font-family="Times,serif" font-size="14.00">credentialSubject</text>
</g>
<!-- DigitalWastePassport -->
<g id="node6" class="node">
<title>DigitalWastePassport</title>
<polygon fill="none" stroke="black" points="195.5,-198 25.5,-198 25.5,-162 195.5,-162 195.5,-198"/>
<text text-anchor="middle" x="110.5" y="-176.3" font-family="Times,serif" font-size="14.00">DigitalWastePassport</text>
</g>
<!-- InvolvedParty -->
<g id="node7" class="node">
<title>InvolvedParty</title>
<polygon fill="none" stroke="black" points="1019,-209 903,-209 903,-173 1019,-173 1019,-209"/>
<text text-anchor="middle" x="961" y="-187.3" font-family="Times,serif" font-size="14.00">InvolvedParty</text>
</g>
<!-- InvolvedParty&#45;&gt;Party -->
<g id="edge10" class="edge">
<title>InvolvedParty&#45;&gt;Party</title>
<path fill="none" stroke="black" d="M1019.03,-191.81C1091.97,-192.84 1216.2,-194.61 1277.73,-195.48"/>
<polygon fill="black" stroke="black" points="1277.71,-198.98 1287.75,-195.62 1277.81,-191.98 1277.71,-198.98"/>
<text text-anchor="middle" x="1158" y="-198.8" font-family="Times,serif" font-size="14.00">role</text>
</g>
<!-- MarpolWaste -->
<g id="node8" class="node">
<title>MarpolWaste</title>
<polygon fill="none" stroke="black" points="747,-144 636,-144 636,-108 747,-108 747,-144"/>
<text text-anchor="middle" x="691.5" y="-122.3" font-family="Times,serif" font-size="14.00">MarpolWaste</text>
</g>
<!-- MarpolWaste&#45;&gt;AuthorizedParty -->
<g id="edge13" class="edge">
<title>MarpolWaste&#45;&gt;AuthorizedParty</title>
<path fill="none" stroke="black" d="M710.06,-144.27C723.88,-157.74 744.23,-175.62 765,-187 802.12,-207.34 847.01,-221.98 884.35,-231.8"/>
<polygon fill="black" stroke="black" points="883.62,-235.23 894.17,-234.32 885.36,-228.45 883.62,-235.23"/>
<text text-anchor="middle" x="814.5" y="-228.8" font-family="Times,serif" font-size="14.00">wasteAgent</text>
</g>
<!-- MarpolWaste&#45;&gt;InvolvedParty -->
<g id="edge4" class="edge">
<title>MarpolWaste&#45;&gt;InvolvedParty</title>
<path fill="none" stroke="black" d="M747.09,-140.46C753.13,-142.01 759.19,-143.55 765,-145 807.45,-155.57 855.25,-166.85 892.9,-175.6"/>
<polygon fill="black" stroke="black" points="892.21,-179.03 902.74,-177.88 893.79,-172.22 892.21,-179.03"/>
<text text-anchor="middle" x="814.5" y="-171.8" font-family="Times,serif" font-size="14.00">involvedParty</text>
</g>
<!-- ResidueInformation -->
<g id="node10" class="node">
<title>ResidueInformation</title>
<polygon fill="none" stroke="black" points="1040,-144 882,-144 882,-108 1040,-108 1040,-144"/>
<text text-anchor="middle" x="961" y="-122.3" font-family="Times,serif" font-size="14.00">ResidueInformation</text>
</g>
<!-- MarpolWaste&#45;&gt;ResidueInformation -->
<g id="edge9" class="edge">
<title>MarpolWaste&#45;&gt;ResidueInformation</title>
<path fill="none" stroke="black" d="M747.28,-126C783.15,-126 830.82,-126 871.94,-126"/>
<polygon fill="black" stroke="black" points="871.97,-129.5 881.97,-126 871.97,-122.5 871.97,-129.5"/>
<text text-anchor="middle" x="814.5" y="-129.8" font-family="Times,serif" font-size="14.00">residue</text>
</g>
<!-- Ship -->
<g id="node11" class="node">
<title>Ship</title>
<polygon fill="none" stroke="black" points="988,-90 934,-90 934,-54 988,-54 988,-90"/>
<text text-anchor="middle" x="961" y="-68.3" font-family="Times,serif" font-size="14.00">Ship</text>
</g>
<!-- MarpolWaste&#45;&gt;Ship -->
<g id="edge11" class="edge">
<title>MarpolWaste&#45;&gt;Ship</title>
<path fill="none" stroke="black" d="M747.02,-111.22C753.07,-109.73 759.15,-108.29 765,-107 820.04,-94.87 884.51,-83.93 923.79,-77.62"/>
<polygon fill="black" stroke="black" points="924.37,-81.08 933.69,-76.05 923.27,-74.16 924.37,-81.08"/>
<text text-anchor="middle" x="814.5" y="-110.8" font-family="Times,serif" font-size="14.00">ship</text>
</g>
<!-- WasdisMetadata -->
<g id="node12" class="node">
<title>WasdisMetadata</title>
<polygon fill="none" stroke="black" points="1028.5,-36 893.5,-36 893.5,0 1028.5,0 1028.5,-36"/>
<text text-anchor="middle" x="961" y="-14.3" font-family="Times,serif" font-size="14.00">WasdisMetadata</text>
</g>
<!-- MarpolWaste&#45;&gt;WasdisMetadata -->
<g id="edge6" class="edge">
<title>MarpolWaste&#45;&gt;WasdisMetadata</title>
<path fill="none" stroke="black" d="M711.67,-107.74C725.51,-95.47 745.18,-79.8 765,-70 801.89,-51.76 845.98,-39.31 882.9,-31.18"/>
<polygon fill="black" stroke="black" points="884.06,-34.51 893.11,-29 882.59,-27.67 884.06,-34.51"/>
<text text-anchor="middle" x="814.5" y="-73.8" font-family="Times,serif" font-size="14.00">message</text>
</g>
<!-- MarpolWastePassport&#45;&gt;MarpolWaste -->
<g id="edge12" class="edge">
<title>MarpolWastePassport&#45;&gt;MarpolWaste</title>
<path fill="none" stroke="black" d="M557.11,-126C580,-126 604.35,-126 625.9,-126"/>
<polygon fill="black" stroke="black" points="625.91,-129.5 635.91,-126 625.91,-122.5 625.91,-129.5"/>
<text text-anchor="middle" x="596.5" y="-129.8" font-family="Times,serif" font-size="14.00">waste</text>
</g>
<!-- ResidueInformation&#45;&gt;Measure -->
<g id="edge3" class="edge">
<title>ResidueInformation&#45;&gt;Measure</title>
<path fill="none" stroke="black" d="M1040.24,-141.52C1100.85,-150.49 1186.29,-156.41 1258,-136 1266.71,-133.52 1275.39,-129.27 1283.23,-124.57"/>
<polygon fill="black" stroke="black" points="1285.17,-127.49 1291.7,-119.15 1281.39,-121.6 1285.17,-127.49"/>
<text text-anchor="middle" x="1158" y="-152.8" font-family="Times,serif" font-size="14.00">estimatedGenerated</text>
</g>
<!-- ResidueInformation&#45;&gt;Measure -->
<g id="edge5" class="edge">
<title>ResidueInformation&#45;&gt;Measure</title>
<path fill="none" stroke="black" d="M1040.05,-118.48C1046.12,-117.96 1052.16,-117.46 1058,-117 1130.2,-111.36 1213.96,-106.44 1265.6,-103.6"/>
<polygon fill="black" stroke="black" points="1266.01,-107.08 1275.8,-103.04 1265.62,-100.09 1266.01,-107.08"/>
<text text-anchor="middle" x="1158" y="-120.8" font-family="Times,serif" font-size="14.00">maxCapacity</text>
</g>
<!-- ResidueInformation&#45;&gt;Measure -->
<g id="edge7" class="edge">
<title>ResidueInformation&#45;&gt;Measure</title>
<path fill="none" stroke="black" d="M1020.3,-107.94C1027.07,-105.23 1033.77,-102.24 1040,-99 1048.76,-94.45 1048.61,-89.04 1058,-86 1142.58,-58.65 1169.86,-74.5 1258,-86 1260.64,-86.35 1263.34,-86.78 1266.05,-87.28"/>
<polygon fill="black" stroke="black" points="1265.36,-90.71 1275.86,-89.33 1266.79,-83.85 1265.36,-90.71"/>
<text text-anchor="middle" x="1158" y="-89.8" font-family="Times,serif" font-size="14.00">quantityRemainingOnBoard</text>
</g>
<!-- ResidueInformation&#45;&gt;Measure -->
<g id="edge8" class="edge">
<title>ResidueInformation&#45;&gt;Measure</title>
<path fill="none" stroke="black" d="M1028.34,-107.95C1032.55,-105.35 1036.5,-102.39 1040,-99 1056.07,-83.44 1039.57,-64.68 1058,-52 1131.24,-1.62 1174.72,-20.92 1258,-52 1271.05,-56.87 1283.09,-66.27 1292.67,-75.54"/>
<polygon fill="black" stroke="black" points="1290.32,-78.14 1299.8,-82.86 1295.33,-73.26 1290.32,-78.14"/>
<text text-anchor="middle" x="1158" y="-55.8" font-family="Times,serif" font-size="14.00">quantityToDeliver</text>
</g>
<!-- Waste -->
<g id="node13" class="node">
<title>Waste</title>
<polygon fill="none" stroke="black" points="140.5,-252 80.5,-252 80.5,-216 140.5,-216 140.5,-252"/>
<text text-anchor="middle" x="110.5" y="-230.3" font-family="Times,serif" font-size="14.00">Waste</text>
</g>
<!-- WastePassport -->
<g id="node14" class="node">
<title>WastePassport</title>
<polygon fill="none" stroke="black" points="171.5,-306 49.5,-306 49.5,-270 171.5,-270 171.5,-306"/>
<text text-anchor="middle" x="110.5" y="-284.3" font-family="Times,serif" font-size="14.00">WastePassport</text>
</g>
</g>
</svg>
